HIERARCHY
ROOT Hips
{
 OFFSET 0.000000 0.000000 0.000000
 CHANNELS 6 Xposition Yposition Zposition Yrotation Xrotation Zrotation
 JOINT Chest
 {
  OFFSET 0.000000 9.585900 0.002600
  CHANNELS 3 Yrotation Xrotation Zrotation
  JOINT Chest2
  {
   OFFSET 0.000000 9.601200 -0.005300
   CHANNELS 3 Yrotation Xrotation Zrotation
   JOINT Chest3
   {
    OFFSET 0.000000 9.561800 0.000000
    CHANNELS 3 Yrotation Xrotation Zrotation
    JOINT Chest4
    {
     OFFSET 0.000000 9.552100 0.000000
     CHANNELS 3 Yrotation Xrotation Zrotation
     JOINT Neck
     {
      OFFSET 0.000000 14.453000 0.000000
      CHANNELS 3 Yrotation Xrotation Zrotation
      JOINT Head
      {
       OFFSET 0.000000 8.936500 -0.011300
       CHANNELS 3 Yrotation Xrotation Zrotation
       End Site
       {
        OFFSET 0.000000 17.073600 -0.006000
       }
      }
     }
     JOINT RightCollar
     {
      OFFSET -2.921100 9.558500 0.000000
      CHANNELS 3 Yrotation Xrotation Zrotation
      JOINT RightShoulder
      {
       OFFSET -13.519700 0.000000 0.000000
       CHANNELS 3 Yrotation Xrotation Zrotation
       JOINT RightElbow
       {
        OFFSET 0.000000 -29.696600 0.000000
        CHANNELS 3 Yrotation Xrotation Zrotation
        JOINT RightWrist
        {
         OFFSET 0.000000 -24.004700 0.000000
         CHANNELS 3 Yrotation Xrotation Zrotation
         End Site
         {
          OFFSET 0.000000 -17.728500 0.000000
         }
        }
       }
      }
     }
     JOINT LeftCollar
     {
      OFFSET 2.921100 9.558500 0.000000
      CHANNELS 3 Yrotation Xrotation Zrotation
      JOINT LeftShoulder
      {
       OFFSET 13.519700 0.000000 0.000000
       CHANNELS 3 Yrotation Xrotation Zrotation
       JOINT LeftElbow
       {
        OFFSET 0.000000 -29.696600 0.000000
        CHANNELS 3 Yrotation Xrotation Zrotation
        JOINT LeftWrist
        {
         OFFSET 0.000000 -24.004700 0.000000
         CHANNELS 3 Yrotation Xrotation Zrotation
         End Site
         {
          OFFSET 0.000000 -17.728500 0.000000
         }
        }
       }
      }
     }
    }
   }
  }
 }
 JOINT RightHip
 {
  OFFSET -7.771700 -0.012900 -0.001300
  CHANNELS 3 Yrotation Xrotation Zrotation
  JOINT RightKnee
  {
   OFFSET 0.000000 -40.869800 0.001200
   CHANNELS 3 Yrotation Xrotation Zrotation
   JOINT RightAnkle
   {
    OFFSET 0.000000 -39.717900 0.002100
    CHANNELS 3 Yrotation Xrotation Zrotation
    JOINT RightToe
    {
     OFFSET 0.000000 -4.965400 11.033500
     CHANNELS 3 Yrotation Xrotation Zrotation
     End Site
     {
      OFFSET 0.000000 -1.423100 5.872300
     }
    }
   }
  }
 }
 JOINT LeftHip
 {
  OFFSET 7.771700 -0.012900 -0.001300
  CHANNELS 3 Yrotation Xrotation Zrotation
  JOINT LeftKnee
  {
   OFFSET 0.000000 -40.869800 0.001200
   CHANNELS 3 Yrotation Xrotation Zrotation
   JOINT LeftAnkle
   {
    OFFSET 0.000000 -39.717900 0.002100
    CHANNELS 3 Yrotation Xrotation Zrotation
    JOINT LeftToe
    {
     OFFSET 0.000000 -4.965400 11.033500
     CHANNELS 3 Yrotation Xrotation Zrotation
     End Site
     {
      OFFSET 0.000000 -1.423100 5.872300
     }
    }
   }
  }
 }
}
MOTION
Frames: 16
Frame Time: 0.008333
-14.903473 54.000516 25.590706 -174.236229 -31.020484 -9.772823 -1.053065 13.275608 3.749897 -0.610116 7.654630 1.887260 -0.736628 9.570902 2.363569 -0.522918 7.689223 1.916684 2.858752 18.541331 0.425701 2.871748 -6.169151 -0.185606 -0.733617 1.488214 -2.465478 -15.050579 -8.752415 8.113478 32.328580 -73.073138 -15.655608 10.248468 -7.785951 -21.683075 -8.939051 3.117231 -3.324572 5.496365 -3.833323 -4.241278 -79.529967 -74.736185 87.167609 14.570975 -13.246838 1.316473 -16.214016 -34.104249 -0.474074 23.342889 87.789574 19.275336 1.675745 -19.485421 3.962606 0.023530 0.289092 0.034394 -14.354119 -45.987561 11.732073 177.274974 81.036949 171.181339 -3.036115 -17.741102 3.191583 -0.052020 -0.557428 0.016456
-14.886567 54.055205 25.589043 -174.213232 -31.006597 -9.722245 -1.029352 13.286997 3.743811 -0.628189 7.643006 1.866659 -0.601889 9.618701 2.399274 -0.641960 7.637602 1.900297 2.868764 18.550190 0.408177 2.877853 -6.168050 -0.213979 -0.704849 1.479459 -2.465744 -15.043010 -8.689156 8.096191 32.314686 -73.093021 -15.686409 10.250005 -7.727526 -21.685655 -8.939543 3.111436 -3.321913 5.533214 -3.843395 -4.271573 -79.452093 -74.775212 87.106291 14.546158 -13.255069 1.248716 -16.279361 -34.170341 -0.524173 24.337362 87.855274 20.271051 1.691499 -19.524927 3.901063 0.012398 0.291155 0.026529 -14.320009 -45.989884 11.746574 177.281491 81.058333 171.113952 -3.115328 -17.734960 3.243513 -0.068188 -0.552699 0.029040
-14.875487 54.103751 25.587745 -174.193218 -30.999264 -9.671957 -1.007147 13.302058 3.737732 -0.558401 7.671450 1.892395 -0.615670 9.608471 2.382036 -0.648125 7.632357 1.892138 2.848700 18.537944 0.392916 2.861722 -6.180968 -0.229912 -0.730229 1.439546 -2.464997 -15.010195 -8.632593 8.081843 32.306572 -73.142498 -15.775514 10.254736 -7.583467 -21.642508 -8.911310 3.109714 -3.305038 5.495816 -3.867094 -4.305185 -79.410966 -74.833965 87.075312 14.554625 -13.234498 1.214012 -16.341672 -34.231685 -0.563549 25.041785 87.926706 20.971330 1.643562 -19.567216 3.867361 0.000957 0.299753 0.019497 -14.272666 -45.994403 11.736979 177.210517 81.071699 170.984882 -3.182924 -17.729205 3.286199 -0.064990 -0.549513 0.031845
-14.869577 54.146894 25.587451 -174.168788 -30.992893 -9.626707 -0.987883 13.316451 3.732514 -0.524982 7.684066 1.901676 -0.664144 9.588741 2.357796 -0.505345 7.693869 1.904402 2.769701 18.495903 0.371015 2.821213 -6.207394 -0.231879 -0.834714 1.358267 -2.470709 -14.987311 -8.590963 8.075381 32.108745 -73.056496 -15.555206 10.274652 -7.544671 -21.743531 -8.965853 3.069765 -3.275811 5.416972 -3.894457 -4.329083 -79.288046 -74.921155 87.004469 14.561199 -13.195252 1.168901 -16.401017 -34.291568 -0.605111 25.684289 87.998392 21.597615 1.629546 -19.612337 3.838850 0.014195 0.312646 0.016463 -14.232466 -46.006316 11.689067 176.889368 81.074599 170.630816 -3.197017 -17.726250 3.274761 -0.105569 -0.546441 0.047029
-14.867137 54.186463 25.586829 -174.137926 -30.997073 -9.594309 -0.968157 13.339560 3.733117 -0.511093 7.691427 1.900558 -0.624018 9.606747 2.363706 -0.487421 7.702322 1.902920 2.720242 18.467877 0.357195 2.773487 -6.236453 -0.218559 -0.923594 1.295915 -2.471497 -14.929250 -8.552570 8.062915 31.771920 -73.020204 -15.220125 10.290395 -7.450336 -21.793533 -8.994345 3.040808 -3.242603 5.371498 -3.908955 -4.360684 -79.148289 -75.019218 86.902445 14.555988 -13.154707 1.127125 -16.465428 -34.336924 -0.645836 26.047035 88.069232 21.934698 1.665154 -19.655792 3.809783 -0.010391 0.322990 0.013700 -14.181201 -46.007204 11.667272 176.770890 81.078304 170.470374 -3.268081 -17.725555 3.321737 -0.073490 -0.540337 0.035093
-14.867988 54.222199 25.587235 -174.105544 -31.003719 -9.566918 -0.976420 13.356929 3.711689 -0.469832 7.708979 1.917559 -0.584145 9.628356 2.369566 -0.498595 7.700848 1.899728 2.693823 18.450533 0.344877 2.761978 -6.251342 -0.237898 -0.936037 1.241570 -2.490612 -14.971478 -8.526987 8.078519 31.280328 -73.000189 -14.695687 10.290359 -7.318900 -21.806374 -8.990516 3.018478 -3.206864 5.485801 -3.859306 -4.427144 -79.349892 -75.125424 86.966128 14.567190 -13.110910 1.132693 -16.525697 -34.376788 -0.684308 26.977591 88.128477 22.825760 1.717532 -19.706138 3.778906 -0.013005 0.337518 0.013765 -14.117214 -46.011929 11.629974 176.595931 81.076953 170.273982 -3.353267 -17.722078 3.373896 -0.043151 -0.535006 0.023967
-14.869180 54.254587 25.589194 -174.077265 -31.010359 -9.552774 -0.981286 13.373882 3.702707 -0.427438 7.728069 1.937531 -0.571419 9.642279 2.368615 -0.488435 7.712087 1.898804 2.664689 18.433243 0.330734 2.745579 -6.266194 -0.256644 -0.954542 1.180225 -2.516686 -14.958915 -8.474632 8.085139 30.546102 -73.028527 -13.968629 10.286977 -7.172812 -21.805992 -9.028802 2.974727 -3.182692 5.585567 -3.808376 -4.463081 -79.438109 -75.282762 86.959384 14.607776 -13.079143 1.205010 -16.582136 -34.410322 -0.710268 28.210135 88.175286 24.017368 1.796704 -19.761350 3.725459 -0.013679 0.352639 0.022941 -13.986663 -46.027183 11.573412 176.469671 81.073086 170.169140 -3.447379 -17.719077 3.441196 -0.018508 -0.529345 0.019266
-14.868988 54.283880 25.593240 -174.061433 -31.014680 -9.551060 -0.881290 13.405171 3.792126 -0.479142 7.725148 1.898202 -0.559670 9.658567 2.368044 -0.479102 7.725156 1.898238 2.631394 18.416099 0.312802 2.714007 -6.286235 -0.268061 -0.991745 1.110932 -2.543410 -14.933846 -8.419347 8.092504 29.534571 -73.079923 -12.961649 10.285923 -7.009401 -21.791516 -9.000507 2.951221 -3.133723 5.581030 -3.787359 -4.505257 -79.453106 -75.502664 86.899937 14.675232 -13.076301 1.345933 -16.627641 -34.445062 -0.706604 29.207971 88.223138 24.989782 1.803648 -19.799886 3.706107 -0.016394 0.364977 0.023911 -13.900446 -46.043612 11.546589 176.234051 81.060753 169.950464 -3.510901 -17.718274 3.477064 -0.016426 -0.525553 0.018336
-14.874445 54.310470 25.597762 -174.027208 -31.024597 -9.529937 -0.889118 13.425733 3.775137 -0.440440 7.749144 1.913782 -0.546916 9.676954 2.368819 -0.468992 7.739835 1.898726 2.593434 18.400693 0.289743 2.678604 -6.304400 -0.283864 -1.042644 1.034454 -2.563897 -14.903397 -8.373765 8.098442 28.168946 -73.147873 -11.599929 10.281285 -6.825876 -21.761291 -8.981126 2.922571 -3.080019 5.551176 -3.780509 -4.544936 -79.383364 -75.774863 86.773395 14.754663 -13.105621 1.547477 -16.651188 -34.482694 -0.740094 30.119651 88.284496 25.888804 1.744231 -19.837773 3.714731 -0.005705 0.375022 0.020565 -13.846067 -46.053839 11.489639 175.896001 81.051910 169.607284 -3.568919 -17.715159 3.499155 -0.031530 -0.517256 0.023801
-14.855977 54.324009 25.626623 -173.833685 -30.845997 -9.719400 -1.028983 13.284924 3.894438 -0.424082 7.767131 1.919308 -0.517545 9.706092 2.376925 -0.458875 7.755555 1.899788 2.553926 18.389175 0.260246 2.643091 -6.318217 -0.306070 -1.114880 0.954715 -2.570233 -14.833829 -8.335830 8.090525 26.345321 -73.240331 -9.797693 10.263694 -6.619941 -21.718734 -9.004494 2.872972 -3.042541 5.515552 -3.789369 -4.569012 -79.129019 -76.078367 86.522446 14.840970 -13.157892 1.769089 -16.942908 -34.629251 -0.553685 30.990183 88.311702 26.763207 1.674790 -19.851075 3.716588 -0.002921 0.378563 0.012332 -14.214351 -46.374876 11.739510 175.653321 80.919113 169.351018 -3.499941 -17.259547 3.493763 -0.137119 -0.900522 0.006866
-14.854766 54.346837 25.635330 -173.813341 -30.847451 -9.724629 -0.947491 13.322545 3.970316 -0.511280 7.735869 1.867736 -0.458619 9.753315 2.396604 -0.449713 7.771086 1.900762 2.517153 18.382895 0.224299 2.612004 -6.326045 -0.335734 -1.147094 0.871031 -2.607501 -14.840768 -8.301437 8.118238 23.971292 -73.328040 -7.420738 10.229060 -6.390650 -21.666259 -9.011976 2.834914 -2.999790 5.577775 -3.705944 -4.585971 -79.300119 -76.443733 86.607602 14.931349 -13.225607 1.984841 -16.950221 -34.662139 -0.541773 32.122102 88.351479 27.888875 1.623240 -19.884064 3.718229 -0.023026 0.392057 0.019506 -14.199743 -46.394117 11.746488 175.387026 80.903138 169.075194 -3.541152 -17.250368 3.508515 -0.125422 -0.904477 0.001163
-14.856191 54.369011 25.643880 -173.771392 -30.855570 -9.718421 -0.963659 13.344225 3.962388 -0.472668 7.761813 1.887385 -0.453448 9.769658 2.394230 -0.441932 7.785478 1.901167 2.486267 18.381802 0.184678 2.588048 -6.327934 -0.370612 -1.174526 0.796530 -2.641356 -14.800066 -8.239438 8.137828 21.024431 -73.456048 -4.533435 10.179183 -6.135606 -21.612411 -9.006203 2.812323 -2.949646 5.590516 -3.659909 -4.605234 -79.306546 -76.816470 86.563177 15.017386 -13.304505 2.203792 -16.944271 -34.691728 -0.560367 32.757442 88.403750 28.525357 1.560552 -19.913406 3.739237 -0.025974 0.400796 0.020995 -14.172321 -46.407904 11.715996 175.143969 80.894431 168.823774 -3.594241 -17.236759 3.528892 -0.134491 -0.901760 0.008437
-14.854943 54.390615 25.653872 -173.744384 -30.861880 -9.711908 -0.968382 13.362356 3.959508 -0.377540 7.819750 1.935368 -0.539681 9.724206 2.360547 -0.438422 7.792355 1.901155 2.497954 18.418940 0.145642 2.570081 -6.325971 -0.408373 -1.116766 0.740926 -2.708945 -14.840439 -8.155394 8.190003 17.639603 -73.554487 -1.196032 10.105950 -5.854941 -21.563595 -9.013428 2.797487 -2.928382 5.641061 -3.604057 -4.597606 -79.222365 -77.183683 86.436426 15.095075 -13.381995 2.416521 -16.923140 -34.722133 -0.571366 33.313704 88.451409 29.082452 1.543313 -19.939092 3.750101 -0.047034 0.411141 0.026747 -14.164050 -46.422925 11.693932 174.919010 80.886139 168.593321 -3.614634 -17.221928 3.527475 -0.133199 -0.905115 0.007375
-14.854980 54.412870 25.662888 -173.705916 -30.878043 -9.696745 -0.947499 13.399645 3.972663 -0.377984 7.833001 1.931515 -0.565444 9.715097 2.348829 -0.379288 7.847522 1.909219 2.456831 18.404649 0.101882 2.556166 -6.321970 -0.448761 -1.151736 0.637890 -2.750268 -14.888403 -8.114453 8.225203 14.067590 -73.562200 2.348804 9.990449 -5.564218 -21.520400 -9.080411 2.731026 -2.899697 5.701437 -3.545515 -4.586804 -79.124475 -77.537264 86.297889 15.159846 -13.444043 2.608787 -16.895538 -34.742579 -0.602239 34.782239 88.484437 30.544914 1.516138 -19.965222 3.763869 -0.061406 0.414310 0.025098 -14.106025 -46.426466 11.617664 174.859140 80.893745 168.553964 -3.620856 -17.222182 3.528443 -0.116466 -0.891590 0.007149
-14.852007 54.433741 25.675189 -173.678946 -30.873879 -9.685589 -0.875700 13.435279 4.032072 -0.422072 7.822262 1.900721 -0.559397 9.730390 2.349985 -0.352075 7.874705 1.910657 2.419803 18.393243 0.056593 2.546702 -6.316384 -0.490891 -1.181831 0.532446 -2.794552 -14.920496 -8.034362 8.264861 10.618801 -73.536520 5.729744 9.840836 -5.287474 -21.490288 -9.092539 2.698483 -2.848793 5.709197 -3.513162 -4.597927 -79.003508 -77.862056 86.145446 15.207852 -13.481198 2.771955 -16.872456 -34.781658 -0.622911 36.389637 88.507184 32.144164 1.563356 -19.987469 3.752978 -0.010609 0.415671 0.020222 -14.093031 -46.453622 11.590182 174.611399 80.888850 168.305012 -3.648705 -17.197160 3.529747 -0.117352 -0.900088 0.003953
-14.850184 54.455276 25.686385 -173.631718 -30.873513 -9.674894 -0.874552 13.455643 4.037485 -0.443492 7.820282 1.885926 -0.516417 9.763101 2.361133 -0.386724 7.853773 1.906053 2.441222 18.432583 0.015352 2.542192 -6.308534 -0.533760 -1.139643 0.469419 -2.850257 -14.969172 -7.922149 8.329838 7.572676 -73.478743 8.694853 9.681643 -5.044600 -21.483634 -9.102489 2.682182 -2.831207 5.764133 -3.455366 -4.582844 -78.856021 -78.146034 85.973619 15.238792 -13.487310 2.900981 -16.873087 -34.812328 -0.657020 39.257639 88.501829 34.989290 1.604793 -20.013444 3.734806 -0.009876 0.419475 0.019186 -14.091274 -46.474441 11.545499 174.339877 80.887066 168.030920 -3.676124 -17.169896 3.524739 -0.119345 -0.908205 0.003603
